<svg width="714" height="115" viewBox="0 0 714 115" fill="#ffffff" xmlns="http://www.w3.org/2000/svg">
<path d="M156.72 22.8H167.76V90H156.72V22.8ZM224.869 22.8V33.36H205.957V90H194.917V33.36H175.909V22.8H224.869ZM275.273 91.248C264.841 91.248 257.641 87.152 253.673 78.96L263.177 73.392C265.353 78.128 269.417 80.496 275.369 80.496C279.209 80.496 282.153 79.568 284.201 77.712C286.313 75.792 287.369 73.104 287.369 69.648V22.8H298.409V69.648C298.409 76.56 296.233 81.904 291.881 85.68C287.529 89.392 281.993 91.248 275.273 91.248ZM332.642 91.248C325.602 91.248 319.618 88.816 314.69 83.952C309.762 79.088 307.298 73.104 307.298 66C307.298 58.896 309.762 52.912 314.69 48.048C319.618 43.184 325.602 40.752 332.642 40.752C339.746 40.752 345.73 43.184 350.594 48.048C355.522 52.912 357.986 58.896 357.986 66C357.986 73.104 355.522 79.088 350.594 83.952C345.73 88.816 339.746 91.248 332.642 91.248ZM321.986 76.848C324.866 79.728 328.418 81.168 332.642 81.168C336.866 81.168 340.418 79.728 343.298 76.848C346.178 73.968 347.618 70.352 347.618 66C347.618 61.648 346.178 58.032 343.298 55.152C340.418 52.272 336.866 50.832 332.642 50.832C328.418 50.832 324.866 52.272 321.986 55.152C319.106 58.032 317.666 61.648 317.666 66C317.666 70.352 319.106 73.968 321.986 76.848ZM394.529 40.752C401.121 40.752 406.753 43.184 411.425 48.048C416.097 52.912 418.433 58.896 418.433 66C418.433 73.04 416.097 79.024 411.425 83.952C406.753 88.816 401.121 91.248 394.529 91.248C387.233 91.248 381.633 88.528 377.729 83.088V90H367.361V22.8H377.729V48.816C381.633 43.44 387.233 40.752 394.529 40.752ZM382.049 77.04C384.929 79.92 388.545 81.36 392.897 81.36C397.249 81.36 400.865 79.92 403.745 77.04C406.625 74.096 408.065 70.416 408.065 66C408.065 61.584 406.625 57.936 403.745 55.056C400.865 52.112 397.249 50.64 392.897 50.64C388.545 50.64 384.929 52.112 382.049 55.056C379.169 57.936 377.729 61.584 377.729 66C377.729 70.416 379.169 74.096 382.049 77.04ZM492.053 55.152C494.997 56.688 497.301 58.8 498.965 61.488C500.629 64.176 501.461 67.28 501.461 70.8C501.461 76.304 499.509 80.88 495.605 84.528C491.701 88.176 486.933 90 481.301 90H452.501V22.8H479.189C484.693 22.8 489.333 24.592 493.109 28.176C496.949 31.696 498.869 36.112 498.869 41.424C498.869 47.248 496.597 51.824 492.053 55.152ZM479.189 33.168H463.541V50.832H479.189C481.621 50.832 483.669 50 485.333 48.336C486.997 46.608 487.829 44.496 487.829 42C487.829 39.504 486.997 37.424 485.333 35.76C483.669 34.032 481.621 33.168 479.189 33.168ZM481.301 79.632C483.861 79.632 486.005 78.736 487.733 76.944C489.525 75.088 490.421 72.848 490.421 70.224C490.421 67.6 489.525 65.392 487.733 63.6C486.005 61.744 483.861 60.816 481.301 60.816H463.541V79.632H481.301ZM533.548 91.248C526.508 91.248 520.524 88.816 515.596 83.952C510.668 79.088 508.204 73.104 508.204 66C508.204 58.896 510.668 52.912 515.596 48.048C520.524 43.184 526.508 40.752 533.548 40.752C540.652 40.752 546.636 43.184 551.5 48.048C556.428 52.912 558.892 58.896 558.892 66C558.892 73.104 556.428 79.088 551.5 83.952C546.636 88.816 540.652 91.248 533.548 91.248ZM522.892 76.848C525.772 79.728 529.324 81.168 533.548 81.168C537.772 81.168 541.324 79.728 544.204 76.848C547.084 73.968 548.524 70.352 548.524 66C548.524 61.648 547.084 58.032 544.204 55.152C541.324 52.272 537.772 50.832 533.548 50.832C529.324 50.832 525.772 52.272 522.892 55.152C520.012 58.032 518.572 61.648 518.572 66C518.572 70.352 520.012 73.968 522.892 76.848ZM606.283 42H616.651V90H606.283V83.088C602.379 88.528 596.779 91.248 589.483 91.248C582.891 91.248 577.259 88.816 572.587 83.952C567.915 79.024 565.579 73.04 565.579 66C565.579 58.896 567.915 52.912 572.587 48.048C577.259 43.184 582.891 40.752 589.483 40.752C596.779 40.752 602.379 43.44 606.283 48.816V42ZM580.267 77.04C583.147 79.92 586.763 81.36 591.115 81.36C595.467 81.36 599.083 79.92 601.963 77.04C604.843 74.096 606.283 70.416 606.283 66C606.283 61.584 604.843 57.936 601.963 55.056C599.083 52.112 595.467 50.64 591.115 50.64C586.763 50.64 583.147 52.112 580.267 55.056C577.387 57.936 575.947 61.584 575.947 66C575.947 70.416 577.387 74.096 580.267 77.04ZM639.104 50.064C641.728 44.112 646.656 41.136 653.888 41.136V52.368C649.92 52.112 646.464 53.072 643.52 55.248C640.576 57.36 639.104 60.88 639.104 65.808V90H628.736V42H639.104V50.064ZM697.314 22.8H707.682V90H697.314V83.088C693.41 88.528 687.81 91.248 680.514 91.248C673.922 91.248 668.29 88.816 663.618 83.952C658.946 79.024 656.61 73.04 656.61 66C656.61 58.896 658.946 52.912 663.618 48.048C668.29 43.184 673.922 40.752 680.514 40.752C687.81 40.752 693.41 43.44 697.314 48.816V22.8ZM671.298 77.04C674.178 79.92 677.794 81.36 682.146 81.36C686.498 81.36 690.114 79.92 692.994 77.04C695.874 74.096 697.314 70.416 697.314 66C697.314 61.584 695.874 57.936 692.994 55.056C690.114 52.112 686.498 50.64 682.146 50.64C677.794 50.64 674.178 52.112 671.298 55.056C668.418 57.936 666.978 61.584 666.978 66C666.978 70.416 668.418 74.096 671.298 77.04Z" />
<path d="M41.3433 66.9547L41.3482 11.0032L15.8099 11C7.37949 11 0.490131 17.5978 0.025027 25.912L0 26.8091V66.9547H41.3433ZM48.6401 37.7677H89.9932L89.9971 26.8092C89.9961 18.0783 82.9182 11 74.187 11L48.6449 11.0032L48.6401 37.7677ZM74.1901 101.011C82.6205 101.011 89.5099 94.413 89.975 86.0989L90 85.2017L89.9932 45.0644H48.6401L48.6449 101.011H74.1901ZM41.3482 101.011L41.3433 74.2514H0L0.0029215 85.2017C0.00393779 93.9326 7.08182 101.011 15.8128 101.011H41.3482Z" />
</svg>
